<?xml version="1.0" encoding="UTF-8"?>
<svg id="Layer_1" data-name="Layer 1" xmlns="http://www.w3.org/2000/svg" xmlns:xlink="http://www.w3.org/1999/xlink" viewBox="0 0 63.74 78.9">
  <defs>
    <style>
      .cls-1, .cls-2, .cls-3, .cls-4 {
        fill: none;
      }

      .cls-5 {
        fill: #010101;
      }

      .cls-6 {
        fill: url(#linear-gradient-3);
      }

      .cls-7 {
        fill: url(#linear-gradient-2);
      }

      .cls-8 {
        fill: #231f20;
      }

      .cls-9 {
        fill: url(#linear-gradient);
      }

      .cls-10 {
        fill: #2559a8;
      }

      .cls-11 {
        clip-path: url(#clippath-10);
      }

      .cls-12 {
        clip-path: url(#clippath-1);
      }

      .cls-13 {
        clip-path: url(#clippath-3);
      }

      .cls-14 {
        clip-path: url(#clippath-4);
      }

      .cls-15 {
        clip-path: url(#clippath-2);
      }

      .cls-16 {
        clip-path: url(#clippath-7);
      }

      .cls-17 {
        clip-path: url(#clippath-6);
      }

      .cls-18 {
        clip-path: url(#clippath-9);
      }

      .cls-19 {
        clip-path: url(#clippath-8);
      }

      .cls-20 {
        clip-path: url(#clippath-5);
      }

      .cls-21 {
        fill: #fff;
      }

      .cls-2 {
        stroke: #010101;
        stroke-width: .29px;
      }

      .cls-3 {
        stroke: #231f20;
      }

      .cls-3, .cls-4 {
        stroke-width: .21px;
      }

      .cls-22 {
        opacity: .35;
      }

      .cls-4 {
        stroke: #285aa8;
      }

      .cls-23 {
        clip-path: url(#clippath);
      }
    </style>
    <clipPath id="clippath">
      <rect class="cls-1" width="63.74" height="78.9"/>
    </clipPath>
    <clipPath id="clippath-1">
      <rect class="cls-1" width="63.74" height="78.9"/>
    </clipPath>
    <clipPath id="clippath-2">
      <rect class="cls-1" y="0" width="63.74" height="78.9"/>
    </clipPath>
    <clipPath id="clippath-3">
      <rect class="cls-1" y="0" width="63.74" height="78.9"/>
    </clipPath>
    <clipPath id="clippath-4">
      <path class="cls-1" d="M8.84,4v22.26s-1.22,9.91,21.45,24.89h0s0,0,0,0h0c22.66-14.98,21.45-24.89,21.45-24.89V4C42.95.35,32.02.16,30.39.15c0,0-.03,0-.08,0-1.08,0-12.42.09-21.47,3.85"/>
    </clipPath>
    <linearGradient id="linear-gradient" x1="-1170.73" y1="-541.65" x2="-1169.73" y2="-541.65" gradientTransform="translate(50255.97 -23221.98) scale(42.92 -42.92)" gradientUnits="userSpaceOnUse">
      <stop offset="0" stop-color="#f1f2f2"/>
      <stop offset=".13" stop-color="#c6c8c9"/>
      <stop offset=".26" stop-color="#a1a3a5"/>
      <stop offset=".32" stop-color="#939598"/>
      <stop offset=".35" stop-color="#b1b3b5"/>
      <stop offset=".39" stop-color="#cdcecf"/>
      <stop offset=".42" stop-color="#e1e2e2"/>
      <stop offset=".46" stop-color="#edeeee"/>
      <stop offset=".49" stop-color="#f1f2f2"/>
      <stop offset=".52" stop-color="#eceded"/>
      <stop offset=".56" stop-color="#dedfe0"/>
      <stop offset=".6" stop-color="#c7c8ca"/>
      <stop offset=".63" stop-color="#a7a9ab"/>
      <stop offset=".65" stop-color="#939598"/>
      <stop offset=".98" stop-color="#eaebec"/>
      <stop offset="1" stop-color="#f1f2f2"/>
    </linearGradient>
    <clipPath id="clippath-5">
      <rect class="cls-1" y="0" width="63.74" height="78.9"/>
    </clipPath>
    <clipPath id="clippath-6">
      <path class="cls-1" d="M13.3,7.18v15.48s-.97,6.9,17.14,17.31h0s0,0,0,0c0,0,0,0,0,0h0c17.72-10.1,17.13-17.31,17.13-17.31V7.18c-7.01-2.53-15.75-2.67-17.05-2.68h-.07c-.87,0-9.93.06-17.15,2.68"/>
    </clipPath>
    <linearGradient id="linear-gradient-2" x1="-1163.69" y1="-545.21" x2="-1162.69" y2="-545.21" gradientTransform="translate(39907.6 -18669.12) scale(34.28 -34.28)" gradientUnits="userSpaceOnUse">
      <stop offset="0" stop-color="#04b3c1"/>
      <stop offset=".43" stop-color="#1688b2"/>
      <stop offset="1" stop-color="#32499e"/>
    </linearGradient>
    <clipPath id="clippath-7">
      <rect class="cls-1" y="0" width="63.74" height="78.9"/>
    </clipPath>
    <clipPath id="clippath-8">
      <path class="cls-1" d="M27.31,8.66l-6.04.4c-.67,0-1.27.22-1.7.61-.44.39-.69.96-.69,1.56v16.84c0,.6.25,1.17.69,1.56.42.39,1.02.61,1.68.61h.02s6.06.8,6.06.8h0s0,0,0,0c.65,0,1.25-.21,1.69-.6.46-.39.71-.96.71-1.56v-6h-.09s-3.38-.41-3.38-.41h-.11s0,.1,0,.1v5.06l-3.72-.38.03-15.35,3.68-.22v4.62s0,.1,0,.1h3.58v-5.57c0-.6-.25-1.17-.7-1.56-.44-.39-1.04-.61-1.73-.61h0M34.88,11.71l3.53.21-.02,7.45-3.51.22v-7.88ZM31.26,8.76v22.22h.11s3.41-.42,3.41-.42h.09v-7.9l4.73-.39c.67,0,1.28-.22,1.72-.62.45-.4.7-.97.69-1.58v-8.82c.01-.61-.25-1.19-.7-1.58-.43-.39-1.05-.61-1.73-.61l-8.22-.4h-.11s0,.1,0,.1Z"/>
    </clipPath>
    <linearGradient id="linear-gradient-3" x1="-1146.86" y1="-553.73" x2="-1145.86" y2="-553.73" gradientTransform="translate(26559.92 -12794.77) scale(23.14 -23.14)" gradientUnits="userSpaceOnUse">
      <stop offset="0" stop-color="#f1f2f2"/>
      <stop offset=".09" stop-color="#c6c8c9"/>
      <stop offset=".19" stop-color="#a1a3a5"/>
      <stop offset=".24" stop-color="#939598"/>
      <stop offset=".35" stop-color="#c0c1c3"/>
      <stop offset=".44" stop-color="#e3e4e5"/>
      <stop offset=".49" stop-color="#f1f2f2"/>
      <stop offset=".55" stop-color="#e4e5e5"/>
      <stop offset=".65" stop-color="#c2c3c5"/>
      <stop offset=".76" stop-color="#939598"/>
      <stop offset=".98" stop-color="#eaebec"/>
      <stop offset="1" stop-color="#f1f2f2"/>
    </linearGradient>
    <clipPath id="clippath-9">
      <rect class="cls-1" y="0" width="63.74" height="78.9"/>
    </clipPath>
    <clipPath id="clippath-10">
      <rect class="cls-1" x="9.27" y=".56" width="21.12" height="50.13"/>
    </clipPath>
  </defs>
  <g id="CP_Badge" data-name="CP Badge">
    <g class="cls-23">
      <g class="cls-12">
        <polygon class="cls-8" points=".11 56.92 .11 57.65 1.7 57.65 1.7 66.25 2.6 66.25 2.6 57.65 4.18 57.65 4.18 56.92 .11 56.92"/>
        <g class="cls-15">
          <polygon class="cls-3" points="4.18 57.66 2.6 57.66 2.6 66.25 1.7 66.25 1.7 57.66 .11 57.66 .11 56.92 4.18 56.92 4.18 57.66"/>
        </g>
        <polygon class="cls-8" points="9.52 66.25 8.61 66.25 8.61 61.77 6.15 61.77 6.15 66.25 5.25 66.25 5.25 56.92 6.15 56.92 6.15 61.02 8.61 61.02 8.61 56.92 9.52 56.92 9.52 66.25"/>
        <polygon class="cls-3" points="9.52 66.25 8.61 66.25 8.61 61.77 6.15 61.77 6.15 66.25 5.25 66.25 5.25 56.92 6.15 56.92 6.15 61.02 8.61 61.02 8.61 56.92 9.52 56.92 9.52 66.25"/>
        <polygon class="cls-8" points="14.5 66.25 11.15 66.25 11.15 56.92 14.46 56.92 14.46 57.66 12.06 57.66 12.06 61.14 14.25 61.14 14.25 61.88 12.06 61.88 12.06 65.52 14.5 65.52 14.5 66.25"/>
        <polygon class="cls-3" points="14.5 66.25 11.15 66.25 11.15 56.92 14.46 56.92 14.46 57.66 12.06 57.66 12.06 61.14 14.25 61.14 14.25 61.88 12.06 61.88 12.06 65.52 14.5 65.52 14.5 66.25"/>
        <g class="cls-13">
          <path class="cls-8" d="M22.62,65.59c0,.19-.07.35-.21.48s-.32.18-.53.18h-2.63c-.21,0-.39-.06-.52-.18s-.2-.28-.2-.48v-8.01c0-.2.07-.35.2-.48s.31-.18.52-.18h2.63c.21,0,.39.06.53.18s.21.28.21.48v2.17h-.91v-2.1h-2.27v7.87h2.27v-2.3h.91v2.37Z"/>
          <path class="cls-3" d="M22.62,65.59c0,.19-.07.35-.21.48s-.32.18-.53.18h-2.63c-.21,0-.39-.06-.52-.18s-.2-.28-.2-.48v-8.01c0-.2.07-.35.2-.48s.31-.18.52-.18h2.63c.21,0,.39.06.53.18s.21.28.21.48v2.17h-.91v-2.1h-2.27v7.87h2.27v-2.3h.91v2.37Z"/>
          <path class="cls-8" d="M28.52,65.59c0,.2-.07.35-.2.48s-.31.19-.52.19h-2.86c-.21,0-.39-.06-.52-.19-.14-.12-.2-.28-.2-.48v-8.01c0-.19.07-.35.2-.48.13-.12.31-.19.52-.19h2.86c.21,0,.39.06.52.19.14.12.2.28.2.48v8.01ZM27.61,57.65h-2.5v7.87h2.5v-7.87Z"/>
          <path class="cls-3" d="M28.52,65.59c0,.2-.07.35-.2.48s-.31.19-.52.19h-2.86c-.21,0-.39-.06-.52-.19-.14-.12-.2-.28-.2-.48v-8.01c0-.19.07-.35.2-.48.13-.12.31-.19.52-.19h2.86c.21,0,.39.06.52.19.14.12.2.28.2.48v8.01ZM27.61,57.65h-2.5v7.87h2.5v-7.87Z"/>
          <polygon class="cls-8" points="34.36 66.25 33.73 66.25 31.01 59.39 31.01 66.25 30.15 66.25 30.15 56.92 30.83 56.92 33.5 63.67 33.5 56.92 34.36 56.92 34.36 66.25"/>
          <polygon class="cls-3" points="34.36 66.25 33.73 66.25 31.01 59.39 31.01 66.25 30.15 66.25 30.15 56.92 30.83 56.92 33.5 63.67 33.5 56.92 34.36 56.92 34.36 66.25"/>
          <path class="cls-8" d="M40.08,65.59c0,.19-.07.35-.21.48s-.31.18-.53.18h-2.63c-.21,0-.39-.06-.52-.18-.13-.12-.2-.28-.2-.48v-8.01c0-.2.07-.35.2-.48.14-.12.31-.18.52-.18h2.63c.21,0,.39.06.53.18s.21.28.21.48v2.17h-.91v-2.1h-2.27v7.87h2.27v-2.3h.91v2.37Z"/>
          <path class="cls-3" d="M40.08,65.59c0,.19-.07.35-.21.48s-.31.18-.53.18h-2.63c-.21,0-.39-.06-.52-.18-.13-.12-.2-.28-.2-.48v-8.01c0-.2.07-.35.2-.48.14-.12.31-.18.52-.18h2.63c.21,0,.39.06.53.18s.21.28.21.48v2.17h-.91v-2.1h-2.27v7.87h2.27v-2.3h.91v2.37Z"/>
          <path class="cls-8" d="M46.01,66.25h-.95l-1.9-5,.12-.17h1.62v-3.43h-2.33v8.6h-.91v-9.33h3.42c.21,0,.39.06.52.19.13.12.2.28.2.48v3.54c0,.45-.33.67-.99.67-.06,0-.16,0-.29,0-.13,0-.22,0-.27,0,.59,1.49,1.17,2.98,1.76,4.47"/>
          <path class="cls-3" d="M46.01,66.25h-.95l-1.9-5,.12-.17h1.62v-3.43h-2.33v8.6h-.91v-9.33h3.42c.21,0,.39.06.52.19.13.12.2.28.2.48v3.54c0,.45-.33.67-.99.67-.06,0-.16,0-.29,0-.13,0-.22,0-.27,0,.59,1.49,1.17,2.98,1.76,4.47Z"/>
          <polygon class="cls-8" points="50.72 66.25 47.37 66.25 47.37 56.92 50.68 56.92 50.68 57.66 48.27 57.66 48.27 61.14 50.47 61.14 50.47 61.88 48.27 61.88 48.27 65.52 50.72 65.52 50.72 66.25"/>
          <polygon class="cls-3" points="50.72 66.25 47.37 66.25 47.37 56.92 50.68 56.92 50.68 57.66 48.27 57.66 48.27 61.14 50.47 61.14 50.47 61.88 48.27 61.88 48.27 65.52 50.72 65.52 50.72 66.25"/>
          <polygon class="cls-8" points="55.65 57.66 54.07 57.66 54.07 66.25 53.17 66.25 53.17 57.66 51.57 57.66 51.57 56.92 55.65 56.92 55.65 57.66"/>
          <polygon class="cls-3" points="55.65 57.66 54.07 57.66 54.07 66.25 53.17 66.25 53.17 57.66 51.57 57.66 51.57 56.92 55.65 56.92 55.65 57.66"/>
          <polygon class="cls-8" points="60.07 66.25 56.71 66.25 56.71 56.92 60.03 56.92 60.03 57.66 57.62 57.66 57.62 61.14 59.81 61.14 59.81 61.88 57.62 61.88 57.62 65.52 60.07 65.52 60.07 66.25"/>
          <polygon class="cls-3" points="60.07 66.25 56.71 66.25 56.71 56.92 60.03 56.92 60.03 57.66 57.62 57.66 57.62 61.14 59.81 61.14 59.81 61.88 57.62 61.88 57.62 65.52 60.07 65.52 60.07 66.25"/>
          <path class="cls-10" d="M5.47,73.67c0,.23-.09.41-.27.56-.18.15-.4.22-.68.22H1.42v4.33H.26v-10.91h4.27c.27,0,.5.07.68.22.18.14.27.33.27.56v5.02ZM4.3,68.73H1.42v4.86h2.88v-4.86Z"/>
          <path class="cls-4" d="M5.47,73.67c0,.23-.09.41-.27.56-.18.15-.4.22-.68.22H1.42v4.33H.26v-10.91h4.27c.27,0,.5.07.68.22.18.14.27.33.27.56v5.02ZM4.3,68.73H1.42v4.86h2.88v-4.86Z"/>
          <path class="cls-10" d="M12.93,78.78h-1.23l-2.45-5.84.16-.19h2.09v-4.01h-3v10.05h-1.17v-10.91h4.41c.27,0,.5.07.67.22.17.14.26.33.26.56v4.14c0,.53-.43.79-1.28.79-.08,0-.21,0-.37-.01s-.28-.01-.35-.01c.76,1.74,1.51,3.48,2.26,5.23"/>
          <path class="cls-4" d="M12.93,78.78h-1.23l-2.45-5.84.16-.19h2.09v-4.01h-3v10.05h-1.17v-10.91h4.41c.27,0,.5.07.67.22.17.14.26.33.26.56v4.14c0,.53-.43.79-1.28.79-.08,0-.21,0-.37-.01s-.28-.01-.35-.01c.76,1.74,1.51,3.48,2.26,5.23Z"/>
          <path class="cls-10" d="M20.24,78.01c0,.23-.09.41-.26.56-.18.14-.4.22-.68.22h-3.69c-.28,0-.5-.07-.67-.22-.17-.14-.26-.33-.26-.56v-9.36c0-.23.09-.41.26-.56.17-.14.4-.22.67-.22h3.69c.27,0,.5.07.68.22.18.14.26.33.26.56v9.36ZM19.07,68.73h-3.22v9.19h3.22v-9.19Z"/>
          <path class="cls-4" d="M20.24,78.01c0,.23-.09.41-.26.56-.18.14-.4.22-.68.22h-3.69c-.28,0-.5-.07-.67-.22-.17-.14-.26-.33-.26-.56v-9.36c0-.23.09-.41.26-.56.17-.14.4-.22.67-.22h3.69c.27,0,.5.07.68.22.18.14.26.33.26.56v9.36ZM19.07,68.73h-3.22v9.19h3.22v-9.19Z"/>
          <polygon class="cls-10" points="26.88 68.73 24.84 68.73 24.84 78.78 23.67 78.78 23.67 68.73 21.62 68.73 21.62 67.88 26.88 67.88 26.88 68.73"/>
          <polygon class="cls-4" points="26.88 68.73 24.84 68.73 24.84 78.78 23.67 78.78 23.67 68.73 21.62 68.73 21.62 67.88 26.88 67.88 26.88 68.73"/>
          <polygon class="cls-10" points="32.58 78.78 28.25 78.78 28.25 67.88 32.52 67.88 32.52 68.73 29.42 68.73 29.42 72.8 32.25 72.8 32.25 73.68 29.42 73.68 29.42 77.93 32.58 77.93 32.58 78.78"/>
          <polygon class="cls-4" points="32.58 78.78 28.25 78.78 28.25 67.88 32.52 67.88 32.52 68.73 29.42 68.73 29.42 72.8 32.25 72.8 32.25 73.68 29.42 73.68 29.42 77.93 32.58 77.93 32.58 78.78"/>
          <path class="cls-10" d="M39.68,78.01c0,.23-.09.41-.27.56-.18.14-.41.22-.68.22h-3.39c-.28,0-.5-.07-.67-.22-.17-.14-.26-.33-.26-.56v-9.36c0-.23.09-.41.26-.56.17-.14.4-.22.67-.22h3.39c.28,0,.5.07.68.22.18.14.27.33.27.56v2.54h-1.18v-2.45h-2.93v9.19h2.93v-2.68h1.18v2.77Z"/>
          <path class="cls-4" d="M39.68,78.01c0,.23-.09.41-.27.56-.18.14-.41.22-.68.22h-3.39c-.28,0-.5-.07-.67-.22-.17-.14-.26-.33-.26-.56v-9.36c0-.23.09-.41.26-.56.17-.14.4-.22.67-.22h3.39c.28,0,.5.07.68.22.18.14.27.33.27.56v2.54h-1.18v-2.45h-2.93v9.19h2.93v-2.68h1.18v2.77Z"/>
          <polygon class="cls-10" points="46.26 68.73 44.22 68.73 44.22 78.78 43.05 78.78 43.05 68.73 41 68.73 41 67.88 46.26 67.88 46.26 68.73"/>
          <polygon class="cls-4" points="46.26 68.73 44.22 68.73 44.22 78.78 43.05 78.78 43.05 68.73 41 68.73 41 67.88 46.26 67.88 46.26 68.73"/>
          <path class="cls-10" d="M53.19,78.01c0,.23-.09.41-.26.56-.18.14-.4.22-.68.22h-3.69c-.27,0-.5-.07-.67-.22-.17-.14-.26-.33-.26-.56v-9.36c0-.23.09-.41.26-.56s.4-.22.67-.22h3.69c.27,0,.5.07.68.22.18.14.26.33.26.56v9.36ZM52.02,68.73h-3.22v9.19h3.22v-9.19Z"/>
          <path class="cls-4" d="M53.19,78.01c0,.23-.09.41-.26.56-.18.14-.4.22-.68.22h-3.69c-.27,0-.5-.07-.67-.22-.17-.14-.26-.33-.26-.56v-9.36c0-.23.09-.41.26-.56s.4-.22.67-.22h3.69c.27,0,.5.07.68.22.18.14.26.33.26.56v9.36ZM52.02,68.73h-3.22v9.19h3.22v-9.19Z"/>
          <path class="cls-10" d="M60.9,78.78h-1.23l-2.45-5.84.16-.19h2.09v-4.01h-3v10.05h-1.17v-10.91h4.41c.28,0,.5.07.67.22.17.14.26.33.26.56v4.14c0,.53-.43.79-1.28.79-.08,0-.21,0-.37-.01-.16,0-.28-.01-.35-.01.76,1.74,1.51,3.48,2.26,5.23"/>
          <path class="cls-4" d="M60.9,78.78h-1.23l-2.45-5.84.16-.19h2.09v-4.01h-3v10.05h-1.17v-10.91h4.41c.28,0,.5.07.67.22.17.14.26.33.26.56v4.14c0,.53-.43.79-1.28.79-.08,0-.21,0-.37-.01-.16,0-.28-.01-.35-.01.76,1.74,1.51,3.48,2.26,5.23Z"/>
          <path class="cls-8" d="M62.67,76.79c.6,0,1.07.46,1.07,1.05s-.47,1.06-1.08,1.06-1.08-.47-1.08-1.06.48-1.05,1.08-1.05h0ZM62.66,77c-.45,0-.81.38-.81.84s.35.84.82.84c.45,0,.8-.37.8-.83s-.35-.85-.81-.85h0ZM62.5,78.38h-.24v-1.05c.1-.01.23-.03.4-.03.2,0,.29.03.36.08.06.04.11.12.11.22,0,.13-.1.21-.22.25h0c.1.04.15.13.19.27.03.16.06.22.08.26h-.26s-.05-.13-.08-.26c-.02-.11-.08-.16-.22-.16h-.12v.42ZM62.51,77.8h.12c.13,0,.24-.04.24-.15,0-.1-.07-.16-.22-.16-.06,0-.11,0-.13.01v.3Z"/>
        </g>
        <g class="cls-14">
          <rect class="cls-9" x="7.62" y=".15" width="45.33" height="51"/>
        </g>
        <g class="cls-20">
          <path class="cls-5" d="M50.03,24.69V5.15C41.98,1.95,31.95,1.78,30.46,1.77c0,0-11.04-.09-19.77,3.38v19.54s-1.11,8.7,19.67,21.85h0s0,0,0,0h0s0,0,0,0c20.79-13.14,19.67-21.85,19.67-21.85"/>
        </g>
        <g class="cls-17">
          <rect class="cls-7" x="12.33" y="4.51" width="35.82" height="35.47"/>
        </g>
        <g class="cls-16">
          <path class="cls-2" d="M47.57,22.66V7.18c-7.02-2.53-15.75-2.67-17.05-2.67,0,0-9.62-.07-17.22,2.67v15.48s-.97,6.9,17.13,17.31h0s0,0,0,0c0,0,0,0,0,0h0c17.72-10.1,17.13-17.31,17.13-17.31Z"/>
        </g>
        <g class="cls-19">
          <rect class="cls-6" x="18.88" y="8.65" width="23.16" height="22.38"/>
        </g>
        <g class="cls-18">
          <path class="cls-5" d="M31.37,8.76l8.22.4h.03c.62,0,1.22.2,1.64.59.45.39.68.94.67,1.5v8.82c0,.56-.22,1.11-.66,1.5-.43.39-1.03.6-1.65.6h-.02l-4.81.4v7.89l-3.41.4V8.76ZM34.78,19.71l3.71-.24.02-7.64-3.74-.23v8.1M27.33,8.76c.61,0,1.2.19,1.64.58.45.38.68.93.67,1.49v5.47h-3.38v-4.73s-3.89.23-3.89.23l-.03,15.53,3.92.4v-5.17l3.38.4v5.91c0,.56-.22,1.11-.67,1.49-.43.38-1.02.58-1.62.58l-6.06-.8s-.02,0-.03,0c-.61,0-1.2-.2-1.61-.58-.43-.38-.66-.92-.66-1.48V11.23c0-.56.22-1.1.65-1.48.42-.39,1.02-.59,1.63-.59h.02l6.03-.4h.02M31.16,8.54v22.54l.23-.03,3.41-.4.18-.02v-7.88l4.61-.38h.01c.7,0,1.33-.23,1.79-.65.47-.41.73-1.02.72-1.65v-8.82c.01-.64-.26-1.24-.74-1.65-.44-.4-1.09-.64-1.77-.64h-.03l-8.21-.4h-.21ZM34.98,19.49v-7.67l3.33.2-.02,7.25-3.3.21ZM27.33,8.56h-.02l-6.03.4h-.01c-.69,0-1.32.23-1.77.64-.46.4-.72,1-.72,1.63v16.84c0,.63.26,1.23.72,1.64.44.41,1.06.63,1.75.63h.02l6.05.8h.01s.01,0,.01,0c.67,0,1.3-.22,1.76-.63.48-.41.75-1.01.74-1.64v-6.08l-.18-.02-3.38-.4-.23-.03v5.17l-3.51-.36.03-15.16,3.48-.21v4.51s0,.2,0,.2h3.78v-5.67c0-.63-.26-1.23-.74-1.64-.45-.4-1.08-.63-1.77-.63"/>
          <g class="cls-22">
            <g class="cls-11">
              <path class="cls-21" d="M30.39.56s-11.8-.1-21.11,3.78v21.88s-1.19,9.75,21.01,24.47l.1-50.12Z"/>
            </g>
          </g>
          <path class="cls-5" d="M30.29.12c.06,0,.08,0,.08,0,1.63,0,12.59.2,21.39,3.85v22.27s1.22,9.92-21.49,24.9h0s0,0,0,0h0s0,0,0,0C7.56,36.16,8.78,26.24,8.78,26.24V3.97C17.85.21,29.21.12,30.29.12M30.29,0C29.04,0,17.78.11,8.73,3.86l-.07.03v22.35c-.01.09-.28,2.55,2.25,6.89,2.32,3.98,7.55,10.36,19.3,18.11l.07.04.07-.04c11.75-7.75,16.98-14.12,19.3-18.11,2.52-4.34,2.26-6.8,2.24-6.91V3.97s0-.08,0-.08l-.07-.03C43.1.25,32.43.01,30.38,0h-.08Z"/>
        </g>
      </g>
    </g>
  </g>
</svg>