<?xml version="1.0" encoding="UTF-8"?>
<svg id="Layer_1" data-name="Layer 1" xmlns="http://www.w3.org/2000/svg" xmlns:xlink="http://www.w3.org/1999/xlink" viewBox="0 0 173.28 55.43">
  <defs>
    <style>
      .cls-1, .cls-2, .cls-3, .cls-4 {
        fill: none;
      }

      .cls-5 {
        fill: #010101;
      }

      .cls-6 {
        fill: url(#linear-gradient-3);
      }

      .cls-7 {
        fill: url(#linear-gradient-2);
      }

      .cls-8 {
        fill: url(#linear-gradient);
      }

      .cls-2 {
        stroke: #005aa6;
      }

      .cls-2, .cls-4 {
        stroke-width: .18px;
      }

      .cls-9 {
        clip-path: url(#clippath-1);
      }

      .cls-10 {
        clip-path: url(#clippath-3);
      }

      .cls-11 {
        clip-path: url(#clippath-4);
      }

      .cls-12 {
        clip-path: url(#clippath-2);
      }

      .cls-13 {
        clip-path: url(#clippath-7);
      }

      .cls-14 {
        clip-path: url(#clippath-6);
      }

      .cls-15 {
        clip-path: url(#clippath-8);
      }

      .cls-16 {
        clip-path: url(#clippath-5);
      }

      .cls-17 {
        fill: #fff;
      }

      .cls-3 {
        stroke: #010101;
        stroke-width: .5px;
      }

      .cls-18 {
        opacity: .35;
      }

      .cls-4 {
        stroke: #fff;
      }

      .cls-19 {
        clip-path: url(#clippath);
      }

      .cls-20 {
        fill: #005aa6;
      }
    </style>
    <clipPath id="clippath">
      <rect class="cls-1" width="173.28" height="55.43"/>
    </clipPath>
    <clipPath id="clippath-1">
      <rect class="cls-1" width="173.28" height="55.43"/>
    </clipPath>
    <clipPath id="clippath-2">
      <path class="cls-1" d="M.21,4.32v24.06s-1.31,10.72,23.18,26.9h0s0,0,0,0h0c24.49-16.19,23.18-26.9,23.18-26.9V4.32C37.08.38,25.26.17,23.5.16h-.09C22.24.16,9.99.26.21,4.32"/>
    </clipPath>
    <linearGradient id="linear-gradient" x1="-803.36" y1="-237.35" x2="-802.36" y2="-237.35" gradientTransform="translate(37266.65 -10982.71) scale(46.39 -46.39)" gradientUnits="userSpaceOnUse">
      <stop offset="0" stop-color="#f1f2f2"/>
      <stop offset=".13" stop-color="#c6c8c9"/>
      <stop offset=".26" stop-color="#a1a3a5"/>
      <stop offset=".32" stop-color="#939598"/>
      <stop offset=".35" stop-color="#b1b3b5"/>
      <stop offset=".39" stop-color="#cdcecf"/>
      <stop offset=".42" stop-color="#e1e2e2"/>
      <stop offset=".46" stop-color="#edeeee"/>
      <stop offset=".49" stop-color="#f1f2f2"/>
      <stop offset=".52" stop-color="#eceded"/>
      <stop offset=".56" stop-color="#dedfe0"/>
      <stop offset=".6" stop-color="#c7c8ca"/>
      <stop offset=".63" stop-color="#a7a9ab"/>
      <stop offset=".65" stop-color="#939598"/>
      <stop offset=".98" stop-color="#eaebec"/>
      <stop offset="1" stop-color="#f1f2f2"/>
    </linearGradient>
    <clipPath id="clippath-3">
      <rect class="cls-1" y="0" width="173.28" height="55.43"/>
    </clipPath>
    <clipPath id="clippath-4">
      <path class="cls-1" d="M5.03,7.76v16.73s-1.05,7.45,18.52,18.71h0s0,0,0,0c0,0,0,0,0,0h0c19.15-10.91,18.52-18.71,18.52-18.71V7.76c-7.58-2.74-17.03-2.88-18.43-2.89h-.08c-.95,0-10.73.07-18.54,2.89"/>
    </clipPath>
    <linearGradient id="linear-gradient-2" x1="-798.9" y1="-238.91" x2="-797.9" y2="-238.91" gradientTransform="translate(29606.94 -8828.38) scale(37.05 -37.05)" gradientUnits="userSpaceOnUse">
      <stop offset="0" stop-color="#04b3c1"/>
      <stop offset=".43" stop-color="#1688b2"/>
      <stop offset="1" stop-color="#32499e"/>
    </linearGradient>
    <clipPath id="clippath-5">
      <rect class="cls-1" y="0" width="173.28" height="55.43"/>
    </clipPath>
    <clipPath id="clippath-6">
      <path class="cls-1" d="M13.64,9.79c-.72,0-1.37.24-1.83.66-.48.42-.75,1.03-.74,1.68v18.2c0,.65.27,1.26.74,1.68.46.43,1.1.66,1.82.66h.02s6.55.86,6.55.86h0s0,0,0,0c.7,0,1.35-.23,1.82-.65.49-.42.77-1.04.76-1.69v-6.48h-.1s-3.65-.44-3.65-.44h-.12s0,.11,0,.11v5.46l-4.02-.41.04-16.59,3.98-.23v4.99s0,.11,0,.11h3.87v-6.01c0-.65-.27-1.27-.76-1.69-.48-.42-1.13-.66-1.87-.66l-6.53.43ZM28.35,12.66l3.82.23-.03,8.05-3.79.24v-8.52ZM24.45,9.47v24.01h.12s3.69-.45,3.69-.45h.1v-8.54l5.11-.42c.73,0,1.39-.24,1.86-.68.49-.43.76-1.05.75-1.7v-9.53c.01-.66-.27-1.28-.76-1.7-.46-.42-1.14-.66-1.87-.66l-8.88-.43h-.12s0,.11,0,.11Z"/>
    </clipPath>
    <linearGradient id="linear-gradient-3" x1="-788.23" y1="-242.63" x2="-787.23" y2="-242.63" gradientTransform="translate(19726.94 -6047.48) scale(25.01 -25.01)" gradientUnits="userSpaceOnUse">
      <stop offset="0" stop-color="#f1f2f2"/>
      <stop offset=".09" stop-color="#c6c8c9"/>
      <stop offset=".19" stop-color="#a1a3a5"/>
      <stop offset=".24" stop-color="#939598"/>
      <stop offset=".35" stop-color="#c0c1c3"/>
      <stop offset=".44" stop-color="#e3e4e5"/>
      <stop offset=".49" stop-color="#f1f2f2"/>
      <stop offset=".55" stop-color="#e4e5e5"/>
      <stop offset=".65" stop-color="#c2c3c5"/>
      <stop offset=".76" stop-color="#939598"/>
      <stop offset=".98" stop-color="#eaebec"/>
      <stop offset="1" stop-color="#f1f2f2"/>
    </linearGradient>
    <clipPath id="clippath-7">
      <rect class="cls-1" y="0" width="173.28" height="55.43"/>
    </clipPath>
    <clipPath id="clippath-8">
      <rect class="cls-1" x=".68" y=".61" width="22.83" height="54.18"/>
    </clipPath>
  </defs>
  <g id="CP_Logo_White">
    <g class="cls-19">
      <g class="cls-9">
        <g class="cls-12">
          <rect class="cls-8" x="-1.1" y=".16" width="48.99" height="55.12"/>
        </g>
        <g class="cls-10">
          <path class="cls-5" d="M44.73,26.69V5.56c-8.7-3.45-19.55-3.64-21.16-3.65,0,0-11.94-.09-21.36,3.65v21.12s-1.2,9.41,21.26,23.61h0s0,0,0,0h0s0,0,0,0c22.47-14.21,21.26-23.61,21.26-23.61"/>
        </g>
        <g class="cls-11">
          <rect class="cls-7" x="3.99" y="4.87" width="38.72" height="38.33"/>
        </g>
        <g class="cls-16">
          <path class="cls-3" d="M42.07,24.5V7.76c-7.58-2.74-17.03-2.88-18.43-2.89,0,0-10.4-.08-18.61,2.89v16.73s-1.05,7.45,18.52,18.71h0s0,0,0,0c0,0,0,0,0,0h0c19.15-10.91,18.52-18.71,18.52-18.71Z"/>
        </g>
        <g class="cls-14">
          <rect class="cls-6" x="11.06" y="9.35" width="25.03" height="24.19"/>
        </g>
        <g class="cls-13">
          <path class="cls-5" d="M24.56,9.47l8.88.43s.02,0,.03,0c.67,0,1.31.22,1.77.63.49.42.73,1.01.72,1.62v9.54c.01.61-.24,1.2-.71,1.62-.47.43-1.12.65-1.79.65h-.03l-5.2.43v8.53l-3.69.43V9.47ZM28.25,21.3l4.01-.26.03-8.25-4.04-.24v8.75M20.2,9.47c.66,0,1.3.21,1.77.63.48.41.73,1,.73,1.61v5.91h-3.65v-5.11s-4.2.25-4.2.25l-.04,16.79,4.24.43v-5.59l3.65.43v6.38c0,.61-.24,1.19-.73,1.61-.47.41-1.1.62-1.75.62l-6.55-.87h-.04c-.66,0-1.29-.21-1.74-.63-.47-.41-.71-1-.71-1.6V12.14c0-.6.24-1.19.71-1.6.46-.42,1.1-.63,1.76-.63h.02l6.51-.43h.02M24.34,9.24v24.36l.25-.03,3.69-.43.19-.02v-8.52l4.99-.41h.02c.75,0,1.44-.25,1.94-.71.51-.45.79-1.1.78-1.79v-9.53c.01-.69-.28-1.34-.8-1.79-.48-.44-1.18-.69-1.92-.69h-.03l-8.87-.43h-.23ZM28.47,21.07v-8.29l3.6.22-.03,7.84-3.57.23ZM20.2,9.25h-.02l-6.52.43h-.02c-.75,0-1.43.25-1.91.69-.5.44-.78,1.08-.78,1.76v18.19c0,.68.28,1.33.78,1.77.48.44,1.15.68,1.89.68h.02l6.54.86h.02s.01,0,.01,0c.73,0,1.4-.24,1.9-.68.52-.44.81-1.09.8-1.78v-6.58l-.19-.02-3.65-.43-.25-.03v5.59l-3.8-.39.04-16.38,3.76-.22v4.88s0,.22,0,.22h4.09v-6.13c0-.68-.28-1.33-.8-1.77-.49-.44-1.17-.68-1.91-.68"/>
          <g class="cls-18">
            <g class="cls-15">
              <path class="cls-17" d="M23.51.61S10.76.5.69,4.69v23.65s-1.29,10.53,22.71,26.44l.11-54.18Z"/>
            </g>
          </g>
          <path class="cls-5" d="M23.4.13c.06,0,.09,0,.09,0,1.76,0,13.61.22,23.12,4.16v24.07s1.32,10.72-23.23,26.91h0s0,0,0,0h0s0,0,0,0C-1.17,39.08.14,28.36.14,28.36V4.29C9.95.23,22.23.13,23.4.13M23.4,0C22.04,0,9.88.12.09,4.17l-.08.03v24.16c-.01.1-.3,2.76,2.43,7.45,2.51,4.3,8.16,11.19,20.86,19.57l.07.05.08-.05c12.7-8.38,18.35-15.27,20.86-19.57,2.73-4.69,2.44-7.35,2.43-7.46V4.29s0-.09,0-.09l-.08-.03C37.24.27,25.71.01,23.49,0h-.09Z"/>
          <polygon class="cls-17" points="59.9 10.73 56.9 10.73 56.9 27.05 55.18 27.05 55.18 10.73 52.16 10.73 52.16 9.34 59.9 9.34 59.9 10.73"/>
          <polygon class="cls-4" points="59.9 10.73 56.9 10.73 56.9 27.05 55.18 27.05 55.18 10.73 52.16 10.73 52.16 9.34 59.9 9.34 59.9 10.73"/>
          <polygon class="cls-17" points="70.03 27.05 68.3 27.05 68.3 18.54 63.64 18.54 63.64 27.05 61.91 27.05 61.91 9.34 63.64 9.34 63.64 17.13 68.3 17.13 68.3 9.34 70.03 9.34 70.03 27.05"/>
          <polygon class="cls-4" points="70.03 27.05 68.3 27.05 68.3 18.54 63.64 18.54 63.64 27.05 61.91 27.05 61.91 9.34 63.64 9.34 63.64 17.13 68.3 17.13 68.3 9.34 70.03 9.34 70.03 27.05"/>
          <polygon class="cls-17" points="79.49 27.05 73.12 27.05 73.12 9.34 79.41 9.34 79.41 10.73 74.84 10.73 74.84 17.34 79 17.34 79 18.76 74.84 18.76 74.84 25.66 79.49 25.66 79.49 27.05"/>
          <polygon class="cls-4" points="79.49 27.05 73.12 27.05 73.12 9.34 79.41 9.34 79.41 10.73 74.84 10.73 74.84 17.34 79 17.34 79 18.76 74.84 18.76 74.84 25.66 79.49 25.66 79.49 27.05"/>
          <path class="cls-17" d="M94.9,25.8c0,.37-.13.67-.4.91-.26.23-.6.35-1,.35h-4.99c-.4,0-.74-.12-.99-.35-.26-.23-.38-.53-.38-.91v-15.2c0-.37.13-.67.38-.9.25-.23.58-.35.99-.35h4.99c.4,0,.74.12,1,.35.26.23.4.54.4.9v4.12h-1.73v-3.98h-4.31v14.93h4.31v-4.36h1.73v4.49Z"/>
          <path class="cls-4" d="M94.9,25.8c0,.37-.13.67-.4.91-.26.23-.6.35-1,.35h-4.99c-.4,0-.74-.12-.99-.35-.26-.23-.38-.53-.38-.91v-15.2c0-.37.13-.67.38-.9.25-.23.58-.35.99-.35h4.99c.4,0,.74.12,1,.35.26.23.4.54.4.9v4.12h-1.73v-3.98h-4.31v14.93h4.31v-4.36h1.73v4.49Z"/>
          <path class="cls-17" d="M106.1,25.8c0,.37-.13.67-.39.9-.26.23-.59.35-1,.35h-5.42c-.4,0-.74-.12-.99-.35-.26-.23-.38-.54-.38-.9v-15.2c0-.37.13-.67.38-.91.26-.23.59-.35.99-.35h5.42c.4,0,.74.12,1,.35.26.23.39.54.39.91v15.2ZM104.38,10.73h-4.74v14.93h4.74v-14.93Z"/>
          <path class="cls-4" d="M106.1,25.8c0,.37-.13.67-.39.9-.26.23-.59.35-1,.35h-5.42c-.4,0-.74-.12-.99-.35-.26-.23-.38-.54-.38-.9v-15.2c0-.37.13-.67.38-.91.26-.23.59-.35.99-.35h5.42c.4,0,.74.12,1,.35.26.23.39.54.39.91v15.2ZM104.38,10.73h-4.74v14.93h4.74v-14.93Z"/>
          <polygon class="cls-17" points="117.18 27.05 115.99 27.05 110.82 14.02 110.82 27.05 109.19 27.05 109.19 9.34 110.48 9.34 115.56 22.14 115.56 9.34 117.18 9.34 117.18 27.05"/>
          <polygon class="cls-4" points="117.18 27.05 115.99 27.05 110.82 14.02 110.82 27.05 109.19 27.05 109.19 9.34 110.48 9.34 115.56 22.14 115.56 9.34 117.18 9.34 117.18 27.05"/>
          <path class="cls-17" d="M128.04,25.8c0,.37-.13.67-.4.91-.26.23-.6.35-1,.35h-4.99c-.4,0-.74-.12-.99-.35-.26-.23-.38-.53-.38-.91v-15.2c0-.37.13-.67.38-.9.25-.23.59-.35.99-.35h4.99c.4,0,.74.12,1,.35.26.23.4.54.4.9v4.12h-1.73v-3.98h-4.31v14.93h4.31v-4.36h1.73v4.49Z"/>
          <path class="cls-4" d="M128.04,25.8c0,.37-.13.67-.4.91-.26.23-.6.35-1,.35h-4.99c-.4,0-.74-.12-.99-.35-.26-.23-.38-.53-.38-.91v-15.2c0-.37.13-.67.38-.9.25-.23.59-.35.99-.35h4.99c.4,0,.74.12,1,.35.26.23.4.54.4.9v4.12h-1.73v-3.98h-4.31v14.93h4.31v-4.36h1.73v4.49Z"/>
          <path class="cls-17" d="M139.3,27.05h-1.81l-3.6-9.49.24-.32h3.07v-6.52h-4.42v16.32h-1.72V9.34h6.49c.4,0,.73.12.99.35.26.23.38.54.38.91v6.72c0,.85-.63,1.28-1.88,1.28-.12,0-.31,0-.54-.02-.24-.01-.41-.02-.52-.02,1.11,2.82,2.22,5.65,3.33,8.49"/>
          <path class="cls-4" d="M139.3,27.05h-1.81l-3.6-9.49.24-.32h3.07v-6.52h-4.42v16.32h-1.72V9.34h6.49c.4,0,.73.12.99.35.26.23.38.54.38.91v6.72c0,.85-.63,1.28-1.88,1.28-.12,0-.31,0-.54-.02-.24-.01-.41-.02-.52-.02,1.11,2.82,2.22,5.65,3.33,8.49Z"/>
          <polygon class="cls-17" points="148.24 27.05 141.87 27.05 141.87 9.34 148.16 9.34 148.16 10.73 143.59 10.73 143.59 17.34 147.75 17.34 147.75 18.76 143.59 18.76 143.59 25.66 148.24 25.66 148.24 27.05"/>
          <polygon class="cls-4" points="148.24 27.05 141.87 27.05 141.87 9.34 148.16 9.34 148.16 10.73 143.59 10.73 143.59 17.34 147.75 17.34 147.75 18.76 143.59 18.76 143.59 25.66 148.24 25.66 148.24 27.05"/>
          <polygon class="cls-17" points="157.6 10.73 154.6 10.73 154.6 27.05 152.88 27.05 152.88 10.73 149.86 10.73 149.86 9.34 157.6 9.34 157.6 10.73"/>
          <polygon class="cls-4" points="157.6 10.73 154.6 10.73 154.6 27.05 152.88 27.05 152.88 10.73 149.86 10.73 149.86 9.34 157.6 9.34 157.6 10.73"/>
          <polygon class="cls-17" points="165.98 27.05 159.62 27.05 159.62 9.34 165.91 9.34 165.91 10.73 161.34 10.73 161.34 17.34 165.5 17.34 165.5 18.76 161.34 18.76 161.34 25.66 165.98 25.66 165.98 27.05"/>
          <polygon class="cls-4" points="165.98 27.05 159.62 27.05 159.62 9.34 165.91 9.34 165.91 10.73 161.34 10.73 161.34 17.34 165.5 17.34 165.5 18.76 161.34 18.76 161.34 25.66 165.98 25.66 165.98 27.05"/>
          <path class="cls-20" d="M62.34,41.44c0,.43-.17.79-.5,1.06s-.76.42-1.29.42h-5.89v8.22h-2.22v-20.7h8.11c.52,0,.95.14,1.29.41.33.27.5.63.5,1.06v9.54ZM60.12,32.06h-5.46v9.22h5.46v-9.22Z"/>
          <path class="cls-2" d="M62.34,41.44c0,.43-.17.79-.5,1.06s-.76.42-1.29.42h-5.89v8.22h-2.22v-20.7h8.11c.52,0,.95.14,1.29.41.33.27.5.63.5,1.06v9.54ZM60.12,32.06h-5.46v9.22h5.46v-9.22Z"/>
          <path class="cls-20" d="M76.5,51.14h-2.33l-4.65-11.09.3-.37h3.96v-7.62h-5.7v19.08h-2.22v-20.7h8.37c.52,0,.95.14,1.28.41.33.27.49.63.49,1.06v7.86c0,1-.81,1.49-2.43,1.49-.16,0-.39,0-.7-.02-.31-.01-.53-.02-.67-.02,1.44,3.3,2.87,6.61,4.3,9.92"/>
          <path class="cls-2" d="M76.5,51.14h-2.33l-4.65-11.09.3-.37h3.96v-7.62h-5.7v19.08h-2.22v-20.7h8.37c.52,0,.95.14,1.28.41.33.27.49.63.49,1.06v7.86c0,1-.81,1.49-2.43,1.49-.16,0-.39,0-.7-.02-.31-.01-.53-.02-.67-.02,1.44,3.3,2.87,6.61,4.3,9.92Z"/>
          <path class="cls-20" d="M90.38,49.67c0,.43-.17.78-.5,1.06-.33.27-.76.41-1.29.41h-7c-.52,0-.95-.14-1.28-.41-.33-.27-.5-.63-.5-1.06v-17.77c0-.43.17-.78.5-1.06.33-.27.76-.41,1.28-.41h7c.52,0,.95.14,1.29.41.33.27.5.63.5,1.06v17.77ZM88.16,32.06h-6.12v17.45h6.12v-17.45Z"/>
          <path class="cls-2" d="M90.38,49.67c0,.43-.17.78-.5,1.06-.33.27-.76.41-1.29.41h-7c-.52,0-.95-.14-1.28-.41-.33-.27-.5-.63-.5-1.06v-17.77c0-.43.17-.78.5-1.06.33-.27.76-.41,1.28-.41h7c.52,0,.95.14,1.29.41.33.27.5.63.5,1.06v17.77ZM88.16,32.06h-6.12v17.45h6.12v-17.45Z"/>
          <polygon class="cls-20" points="102.98 32.06 99.11 32.06 99.11 51.14 96.89 51.14 96.89 32.06 93 32.06 93 30.44 102.98 30.44 102.98 32.06"/>
          <polygon class="cls-2" points="102.98 32.06 99.11 32.06 99.11 51.14 96.89 51.14 96.89 32.06 93 32.06 93 30.44 102.98 30.44 102.98 32.06"/>
          <polygon class="cls-20" points="113.79 51.14 105.58 51.14 105.58 30.44 113.7 30.44 113.7 32.06 107.8 32.06 107.8 39.79 113.17 39.79 113.17 41.44 107.8 41.44 107.8 49.51 113.79 49.51 113.79 51.14"/>
          <polygon class="cls-2" points="113.79 51.14 105.58 51.14 105.58 30.44 113.7 30.44 113.7 32.06 107.8 32.06 107.8 39.79 113.17 39.79 113.17 41.44 107.8 41.44 107.8 49.51 113.79 49.51 113.79 51.14"/>
          <path class="cls-20" d="M127.27,49.67c0,.43-.17.78-.51,1.06-.34.27-.77.41-1.29.41h-6.44c-.52,0-.95-.14-1.28-.41-.33-.27-.49-.63-.49-1.06v-17.77c0-.43.17-.78.49-1.06.33-.27.76-.41,1.28-.41h6.44c.52,0,.95.14,1.29.41.34.27.51.63.51,1.06v4.82h-2.24v-4.66h-5.56v17.45h5.56v-5.09h2.24v5.25Z"/>
          <path class="cls-2" d="M127.27,49.67c0,.43-.17.78-.51,1.06-.34.27-.77.41-1.29.41h-6.44c-.52,0-.95-.14-1.28-.41-.33-.27-.49-.63-.49-1.06v-17.77c0-.43.17-.78.49-1.06.33-.27.76-.41,1.28-.41h6.44c.52,0,.95.14,1.29.41.34.27.51.63.51,1.06v4.82h-2.24v-4.66h-5.56v17.45h5.56v-5.09h2.24v5.25Z"/>
          <polygon class="cls-20" points="139.76 32.06 135.9 32.06 135.9 51.14 133.68 51.14 133.68 32.06 129.78 32.06 129.78 30.44 139.76 30.44 139.76 32.06"/>
          <polygon class="cls-2" points="139.76 32.06 135.9 32.06 135.9 51.14 133.68 51.14 133.68 32.06 129.78 32.06 129.78 30.44 139.76 30.44 139.76 32.06"/>
          <path class="cls-20" d="M152.93,49.67c0,.43-.17.78-.5,1.06-.34.27-.76.41-1.29.41h-7c-.52,0-.95-.14-1.28-.41-.33-.27-.49-.63-.49-1.06v-17.77c0-.43.16-.78.49-1.06.33-.27.76-.41,1.28-.41h7c.52,0,.95.14,1.29.41.34.27.5.63.5,1.06v17.77ZM150.71,32.06h-6.12v17.45h6.12v-17.45Z"/>
          <path class="cls-2" d="M152.93,49.67c0,.43-.17.78-.5,1.06-.34.27-.76.41-1.29.41h-7c-.52,0-.95-.14-1.28-.41-.33-.27-.49-.63-.49-1.06v-17.77c0-.43.16-.78.49-1.06.33-.27.76-.41,1.28-.41h7c.52,0,.95.14,1.29.41.34.27.5.63.5,1.06v17.77ZM150.71,32.06h-6.12v17.45h6.12v-17.45Z"/>
          <path class="cls-20" d="M167.56,51.14h-2.33l-4.65-11.09.3-.37h3.96v-7.62h-5.7v19.08h-2.22v-20.7h8.37c.52,0,.95.14,1.28.41.33.27.5.63.5,1.06v7.86c0,1-.81,1.49-2.43,1.49-.16,0-.39,0-.7-.02-.31-.01-.53-.02-.67-.02,1.44,3.3,2.87,6.61,4.3,9.92"/>
          <path class="cls-2" d="M167.56,51.14h-2.33l-4.65-11.09.3-.37h3.96v-7.62h-5.7v19.08h-2.22v-20.7h8.37c.52,0,.95.14,1.28.41.33.27.5.63.5,1.06v7.86c0,1-.81,1.49-2.43,1.49-.16,0-.39,0-.7-.02-.31-.01-.53-.02-.67-.02,1.44,3.3,2.87,6.61,4.3,9.92Z"/>
          <path class="cls-17" d="M173.28,49.43c0,1.01-.79,1.8-1.82,1.8s-1.83-.79-1.83-1.8.81-1.78,1.83-1.78,1.82.79,1.82,1.78M170.08,49.43c0,.79.59,1.42,1.39,1.42s1.36-.63,1.36-1.41-.57-1.43-1.37-1.43-1.38.64-1.38,1.42M171.18,50.36h-.41v-1.78c.16-.03.39-.05.68-.05.34,0,.49.05.62.13.1.08.17.22.17.39,0,.19-.15.35-.37.41v.02c.17.07.27.19.33.43.05.27.09.38.13.44h-.45c-.05-.07-.09-.23-.14-.43-.03-.19-.14-.28-.37-.28h-.2v.72ZM171.19,49.35h.2c.23,0,.41-.08.41-.26,0-.16-.12-.27-.38-.27-.11,0-.18.01-.23.02v.51Z"/>
        </g>
      </g>
    </g>
  </g>
</svg>
