<?xml version="1.0" encoding="UTF-8"?>
<svg id="Layer_1" data-name="Layer 1" xmlns="http://www.w3.org/2000/svg" xmlns:xlink="http://www.w3.org/1999/xlink" viewBox="0 0 174.17 58.19">
  <defs>
    <style>
      .cls-1, .cls-2, .cls-3, .cls-4 {
        fill: none;
      }

      .cls-5 {
        fill: #010101;
      }

      .cls-6 {
        fill: url(#linear-gradient-3);
      }

      .cls-7 {
        fill: url(#linear-gradient-2);
      }

      .cls-8 {
        fill: #231f20;
      }

      .cls-9 {
        fill: url(#radial-gradient);
      }

      .cls-10 {
        fill: url(#linear-gradient);
      }

      .cls-11 {
        fill: #2559a8;
      }

      .cls-12 {
        clip-path: url(#clippath-10);
      }

      .cls-13 {
        clip-path: url(#clippath-1);
      }

      .cls-14 {
        clip-path: url(#clippath-3);
      }

      .cls-15 {
        clip-path: url(#clippath-4);
      }

      .cls-16 {
        clip-path: url(#clippath-2);
      }

      .cls-17 {
        clip-path: url(#clippath-7);
      }

      .cls-18 {
        clip-path: url(#clippath-6);
      }

      .cls-19 {
        clip-path: url(#clippath-9);
      }

      .cls-20 {
        clip-path: url(#clippath-8);
      }

      .cls-21 {
        clip-path: url(#clippath-5);
      }

      .cls-22 {
        fill: #fff;
      }

      .cls-2 {
        stroke: #010101;
        stroke-width: .3px;
      }

      .cls-3 {
        stroke: #231f20;
      }

      .cls-3, .cls-4 {
        stroke-width: .18px;
      }

      .cls-23 {
        opacity: .35;
      }

      .cls-4 {
        stroke: #285aa8;
      }

      .cls-24 {
        clip-path: url(#clippath);
      }
    </style>
    <clipPath id="clippath">
      <rect class="cls-1" width="174.17" height="58.19"/>
    </clipPath>
    <clipPath id="clippath-1">
      <rect class="cls-1" width="174.17" height="58.19"/>
    </clipPath>
    <clipPath id="clippath-2">
      <rect class="cls-1" y="0" width="174.17" height="58.19"/>
    </clipPath>
    <clipPath id="clippath-3">
      <path class="cls-1" d="M0,55.55c0,1.45,12.38,2.63,27.66,2.63s27.66-1.18,27.66-2.63-12.38-2.63-27.66-2.63S0,54.1,0,55.55"/>
    </clipPath>
    <radialGradient id="radial-gradient" cx="-1071.39" cy="-601.99" fx="-1071.39" fy="-601.99" r="1" gradientTransform="translate(29669.37 -1528.93) scale(27.67 -2.63)" gradientUnits="userSpaceOnUse">
      <stop offset="0" stop-color="#808285"/>
      <stop offset=".13" stop-color="#808285"/>
      <stop offset=".35" stop-color="#a5a7a9"/>
      <stop offset=".76" stop-color="#e5e6e6"/>
      <stop offset=".96" stop-color="#fff"/>
      <stop offset="1" stop-color="#fff"/>
    </radialGradient>
    <clipPath id="clippath-4">
      <path class="cls-1" d="M5.51,4.14v23.06s-1.26,10.27,22.22,25.78h0s0,0,0,0h0c23.48-15.52,22.22-25.79,22.22-25.79V4.14C40.85.37,29.52.16,27.83.16h-.09c-1.13,0-12.87.09-22.24,3.98"/>
    </clipPath>
    <linearGradient id="linear-gradient" x1="-1086.57" y1="-430.99" x2="-1085.57" y2="-430.99" gradientTransform="translate(48321.15 -19137.69) scale(44.47 -44.47)" gradientUnits="userSpaceOnUse">
      <stop offset="0" stop-color="#f1f2f2"/>
      <stop offset=".13" stop-color="#c6c8c9"/>
      <stop offset=".26" stop-color="#a1a3a5"/>
      <stop offset=".32" stop-color="#939598"/>
      <stop offset=".35" stop-color="#b1b3b5"/>
      <stop offset=".39" stop-color="#cdcecf"/>
      <stop offset=".42" stop-color="#e1e2e2"/>
      <stop offset=".46" stop-color="#edeeee"/>
      <stop offset=".49" stop-color="#f1f2f2"/>
      <stop offset=".52" stop-color="#eceded"/>
      <stop offset=".56" stop-color="#dedfe0"/>
      <stop offset=".6" stop-color="#c7c8ca"/>
      <stop offset=".63" stop-color="#a7a9ab"/>
      <stop offset=".65" stop-color="#939598"/>
      <stop offset=".98" stop-color="#eaebec"/>
      <stop offset="1" stop-color="#f1f2f2"/>
    </linearGradient>
    <clipPath id="clippath-5">
      <rect class="cls-1" y="0" width="174.17" height="58.19"/>
    </clipPath>
    <clipPath id="clippath-6">
      <path class="cls-1" d="M10.13,7.44v16.04s-1,7.15,17.75,17.93h0s0,0,0,0c0,0,0,0,0,0h0c18.35-10.46,17.75-17.94,17.75-17.94V7.44c-7.27-2.62-16.32-2.76-17.67-2.77h-.07c-.92,0-10.29.07-17.77,2.77"/>
    </clipPath>
    <linearGradient id="linear-gradient-2" x1="-1080.27" y1="-433.7" x2="-1079.27" y2="-433.7" gradientTransform="translate(38379.14 -15380.92) scale(35.52 -35.52)" gradientUnits="userSpaceOnUse">
      <stop offset="0" stop-color="#04b3c1"/>
      <stop offset=".43" stop-color="#1688b2"/>
      <stop offset="1" stop-color="#32499e"/>
    </linearGradient>
    <clipPath id="clippath-7">
      <rect class="cls-1" y="0" width="174.17" height="58.19"/>
    </clipPath>
    <clipPath id="clippath-8">
      <path class="cls-1" d="M24.64,8.97l-6.26.42c-.69,0-1.32.23-1.76.63-.46.4-.72.99-.71,1.61v17.44c0,.62.26,1.21.71,1.61.44.41,1.06.63,1.74.63h.02s6.28.83,6.28.83h0s0,0,0,0c.67,0,1.29-.22,1.75-.62.47-.41.74-1,.73-1.62v-6.21h-.09s-3.5-.42-3.5-.42h-.12s0,.1,0,.1v5.24l-3.85-.39.04-15.9,3.81-.22v4.79s0,.1,0,.1h3.71v-5.76c0-.63-.26-1.22-.73-1.62-.45-.4-1.08-.63-1.79-.63h0M32.48,12.14l3.66.22-.02,7.71-3.64.23v-8.17ZM28.74,9.07v23.01h.12s3.54-.43,3.54-.43h.09v-8.18l4.9-.41c.7,0,1.33-.23,1.78-.65.47-.41.73-1.01.72-1.63v-9.14c.01-.63-.26-1.23-.73-1.63-.44-.4-1.09-.64-1.79-.64l-8.52-.41h-.11s0,.1,0,.1Z"/>
    </clipPath>
    <linearGradient id="linear-gradient-3" x1="-1065.21" y1="-440.18" x2="-1064.21" y2="-440.18" gradientTransform="translate(25555.61 -10533.31) scale(23.98 -23.98)" gradientUnits="userSpaceOnUse">
      <stop offset="0" stop-color="#f1f2f2"/>
      <stop offset=".09" stop-color="#c6c8c9"/>
      <stop offset=".19" stop-color="#a1a3a5"/>
      <stop offset=".24" stop-color="#939598"/>
      <stop offset=".35" stop-color="#c0c1c3"/>
      <stop offset=".44" stop-color="#e3e4e5"/>
      <stop offset=".49" stop-color="#f1f2f2"/>
      <stop offset=".55" stop-color="#e4e5e5"/>
      <stop offset=".65" stop-color="#c2c3c5"/>
      <stop offset=".76" stop-color="#939598"/>
      <stop offset=".98" stop-color="#eaebec"/>
      <stop offset="1" stop-color="#f1f2f2"/>
    </linearGradient>
    <clipPath id="clippath-9">
      <rect class="cls-1" y="0" width="174.17" height="58.19"/>
    </clipPath>
    <clipPath id="clippath-10">
      <rect class="cls-1" x="5.95" y=".58" width="21.89" height="51.93"/>
    </clipPath>
  </defs>
  <g id="CP_Logo_Shadow" data-name="CP Logo Shadow">
    <g class="cls-24">
      <g class="cls-13">
        <polygon class="cls-8" points="63.44 10.68 60.49 10.68 60.49 26.77 58.79 26.77 58.79 10.68 55.81 10.68 55.81 9.31 63.44 9.31 63.44 10.68"/>
        <polygon class="cls-3" points="63.44 10.68 60.49 10.68 60.49 26.77 58.79 26.77 58.79 10.68 55.81 10.68 55.81 9.31 63.44 9.31 63.44 10.68"/>
        <polygon class="cls-8" points="73.42 26.77 71.73 26.77 71.73 18.38 67.13 18.38 67.13 26.77 65.43 26.77 65.43 9.31 67.13 9.31 67.13 16.98 71.73 16.98 71.73 9.31 73.42 9.31 73.42 26.77"/>
        <polygon class="cls-3" points="73.42 26.77 71.73 26.77 71.73 18.38 67.13 18.38 67.13 26.77 65.43 26.77 65.43 9.31 67.13 9.31 67.13 16.98 71.73 16.98 71.73 9.31 73.42 9.31 73.42 26.77"/>
        <polygon class="cls-8" points="82.75 26.77 76.47 26.77 76.47 9.31 82.67 9.31 82.67 10.68 78.17 10.68 78.17 17.2 82.27 17.2 82.27 18.59 78.17 18.59 78.17 25.4 82.75 25.4 82.75 26.77"/>
        <polygon class="cls-3" points="82.75 26.77 76.47 26.77 76.47 9.31 82.67 9.31 82.67 10.68 78.17 10.68 78.17 17.2 82.27 17.2 82.27 18.59 78.17 18.59 78.17 25.4 82.75 25.4 82.75 26.77"/>
        <g class="cls-16">
          <path class="cls-8" d="M97.94,25.53c0,.36-.13.66-.39.89-.26.23-.59.35-.99.35h-4.92c-.4,0-.72-.12-.98-.35-.25-.23-.38-.53-.38-.89v-14.98c0-.36.13-.66.38-.89.25-.23.58-.35.98-.35h4.92c.4,0,.73.12.99.35.26.23.39.53.39.89v4.06h-1.71v-3.93h-4.25v14.71h4.25v-4.3h1.71v4.43Z"/>
          <path class="cls-3" d="M97.94,25.53c0,.36-.13.66-.39.89-.26.23-.59.35-.99.35h-4.92c-.4,0-.72-.12-.98-.35-.25-.23-.38-.53-.38-.89v-14.98c0-.36.13-.66.38-.89.25-.23.58-.35.98-.35h4.92c.4,0,.73.12.99.35.26.23.39.53.39.89v4.06h-1.71v-3.93h-4.25v14.71h4.25v-4.3h1.71v4.43Z"/>
          <path class="cls-8" d="M108.97,25.53c0,.36-.13.66-.39.89-.26.23-.58.35-.98.35h-5.34c-.4,0-.72-.11-.98-.35-.25-.23-.38-.53-.38-.89v-14.98c0-.36.13-.66.38-.89.25-.23.58-.35.98-.35h5.34c.4,0,.73.12.98.35.26.23.39.53.39.89v14.98ZM107.27,10.68h-4.67v14.71h4.67v-14.71Z"/>
          <path class="cls-3" d="M108.97,25.53c0,.36-.13.66-.39.89-.26.23-.58.35-.98.35h-5.34c-.4,0-.72-.11-.98-.35-.25-.23-.38-.53-.38-.89v-14.98c0-.36.13-.66.38-.89.25-.23.58-.35.98-.35h5.34c.4,0,.73.12.98.35.26.23.39.53.39.89v14.98ZM107.27,10.68h-4.67v14.71h4.67v-14.71Z"/>
          <polygon class="cls-8" points="119.89 26.77 118.72 26.77 113.62 13.93 113.62 26.77 112.02 26.77 112.02 9.31 113.29 9.31 118.29 21.93 118.29 9.31 119.89 9.31 119.89 26.77"/>
          <polygon class="cls-3" points="119.89 26.77 118.72 26.77 113.62 13.93 113.62 26.77 112.02 26.77 112.02 9.31 113.29 9.31 118.29 21.93 118.29 9.31 119.89 9.31 119.89 26.77"/>
          <path class="cls-8" d="M130.59,25.53c0,.36-.13.66-.39.89-.26.23-.59.35-.99.35h-4.92c-.4,0-.72-.12-.98-.35-.25-.23-.38-.53-.38-.89v-14.98c0-.36.13-.66.38-.89.25-.23.58-.35.98-.35h4.92c.4,0,.73.12.99.35.26.23.39.53.39.89v4.06h-1.71v-3.93h-4.25v14.71h4.25v-4.3h1.71v4.43Z"/>
          <path class="cls-3" d="M130.59,25.53c0,.36-.13.66-.39.89-.26.23-.59.35-.99.35h-4.92c-.4,0-.72-.12-.98-.35-.25-.23-.38-.53-.38-.89v-14.98c0-.36.13-.66.38-.89.25-.23.58-.35.98-.35h4.92c.4,0,.73.12.99.35.26.23.39.53.39.89v4.06h-1.71v-3.93h-4.25v14.71h4.25v-4.3h1.71v4.43Z"/>
          <path class="cls-8" d="M141.69,26.77h-1.78l-3.55-9.35.23-.31h3.03v-6.43h-4.36v16.09h-1.7V9.31h6.39c.4,0,.72.12.98.35.25.23.38.53.38.89v6.63c0,.84-.62,1.26-1.85,1.26-.12,0-.3,0-.54-.02-.24-.01-.41-.02-.51-.02,1.1,2.78,2.19,5.57,3.28,8.37"/>
          <path class="cls-3" d="M141.69,26.77h-1.78l-3.55-9.35.23-.31h3.03v-6.43h-4.36v16.09h-1.7V9.31h6.39c.4,0,.72.12.98.35.25.23.38.53.38.89v6.63c0,.84-.62,1.26-1.85,1.26-.12,0-.3,0-.54-.02-.24-.01-.41-.02-.51-.02,1.1,2.78,2.19,5.57,3.28,8.37Z"/>
          <polygon class="cls-8" points="150.5 26.77 144.23 26.77 144.23 9.31 150.42 9.31 150.42 10.68 145.92 10.68 145.92 17.2 150.02 17.2 150.02 18.59 145.92 18.59 145.92 25.4 150.5 25.4 150.5 26.77"/>
          <polygon class="cls-3" points="150.5 26.77 144.23 26.77 144.23 9.31 150.42 9.31 150.42 10.68 145.92 10.68 145.92 17.2 150.02 17.2 150.02 18.59 145.92 18.59 145.92 25.4 150.5 25.4 150.5 26.77"/>
          <polygon class="cls-8" points="159.72 10.68 156.77 10.68 156.77 26.77 155.07 26.77 155.07 10.68 152.1 10.68 152.1 9.31 159.72 9.31 159.72 10.68"/>
          <polygon class="cls-3" points="159.72 10.68 156.77 10.68 156.77 26.77 155.07 26.77 155.07 10.68 152.1 10.68 152.1 9.31 159.72 9.31 159.72 10.68"/>
          <polygon class="cls-8" points="167.98 26.77 161.71 26.77 161.71 9.31 167.91 9.31 167.91 10.68 163.41 10.68 163.41 17.2 167.51 17.2 167.51 18.59 163.41 18.59 163.41 25.4 167.98 25.4 167.98 26.77"/>
          <polygon class="cls-3" points="167.98 26.77 161.71 26.77 161.71 9.31 167.91 9.31 167.91 10.68 163.41 10.68 163.41 17.2 167.51 17.2 167.51 18.59 163.41 18.59 163.41 25.4 167.98 25.4 167.98 26.77"/>
          <path class="cls-11" d="M65.85,39.94c0,.43-.17.77-.5,1.05-.33.27-.75.41-1.27.41h-5.81v8.1h-2.19v-20.4h8c.51,0,.94.13,1.27.4.33.27.5.62.5,1.04v9.4ZM63.67,30.7h-5.38v9.09h5.38v-9.09Z"/>
          <path class="cls-4" d="M65.85,39.94c0,.43-.17.77-.5,1.05-.33.27-.75.41-1.27.41h-5.81v8.1h-2.19v-20.4h8c.51,0,.94.13,1.27.4.33.27.5.62.5,1.04v9.4ZM63.67,30.7h-5.38v9.09h5.38v-9.09Z"/>
          <path class="cls-11" d="M79.8,49.49h-2.3l-4.58-10.92.3-.37h3.9v-7.51h-5.62v18.8h-2.19v-20.4h8.25c.51,0,.93.13,1.26.4.32.27.49.62.49,1.04v7.74c0,.98-.8,1.47-2.39,1.47-.16,0-.39,0-.69-.02-.31-.01-.53-.02-.66-.02,1.42,3.25,2.83,6.51,4.23,9.78"/>
          <path class="cls-4" d="M79.8,49.49h-2.3l-4.58-10.92.3-.37h3.9v-7.51h-5.62v18.8h-2.19v-20.4h8.25c.51,0,.93.13,1.26.4.32.27.49.62.49,1.04v7.74c0,.98-.8,1.47-2.39,1.47-.16,0-.39,0-.69-.02-.31-.01-.53-.02-.66-.02,1.42,3.25,2.83,6.51,4.23,9.78Z"/>
          <path class="cls-11" d="M93.48,48.05c0,.43-.17.77-.5,1.04-.33.27-.75.4-1.27.4h-6.9c-.51,0-.93-.13-1.26-.4-.32-.27-.49-.62-.49-1.04v-17.51c0-.43.16-.77.49-1.04.33-.27.75-.4,1.26-.4h6.9c.51,0,.94.13,1.27.4.33.27.5.62.5,1.04v17.51ZM91.29,30.7h-6.03v17.19h6.03v-17.19Z"/>
          <path class="cls-4" d="M93.48,48.05c0,.43-.17.77-.5,1.04-.33.27-.75.4-1.27.4h-6.9c-.51,0-.93-.13-1.26-.4-.32-.27-.49-.62-.49-1.04v-17.51c0-.43.16-.77.49-1.04.33-.27.75-.4,1.26-.4h6.9c.51,0,.94.13,1.27.4.33.27.5.62.5,1.04v17.51ZM91.29,30.7h-6.03v17.19h6.03v-17.19Z"/>
          <polygon class="cls-11" points="105.9 30.7 102.09 30.7 102.09 49.49 99.9 49.49 99.9 30.7 96.06 30.7 96.06 29.09 105.9 29.09 105.9 30.7"/>
          <polygon class="cls-4" points="105.9 30.7 102.09 30.7 102.09 49.49 99.9 49.49 99.9 30.7 96.06 30.7 96.06 29.09 105.9 29.09 105.9 30.7"/>
          <polygon class="cls-11" points="116.55 49.49 108.46 49.49 108.46 29.09 116.46 29.09 116.46 30.7 110.65 30.7 110.65 38.31 115.94 38.31 115.94 39.94 110.65 39.94 110.65 47.89 116.55 47.89 116.55 49.49"/>
          <polygon class="cls-4" points="116.55 49.49 108.46 49.49 108.46 29.09 116.46 29.09 116.46 30.7 110.65 30.7 110.65 38.31 115.94 38.31 115.94 39.94 110.65 39.94 110.65 47.89 116.55 47.89 116.55 49.49"/>
          <path class="cls-11" d="M129.84,48.05c0,.43-.17.77-.5,1.04-.34.27-.76.4-1.28.4h-6.34c-.51,0-.93-.13-1.26-.4-.33-.27-.49-.62-.49-1.04v-17.51c0-.43.16-.77.49-1.04.32-.27.74-.4,1.26-.4h6.34c.51,0,.94.13,1.28.4.34.27.5.62.5,1.04v4.74h-2.2v-4.59h-5.48v17.2h5.48v-5.02h2.2v5.18Z"/>
          <path class="cls-4" d="M129.84,48.05c0,.43-.17.77-.5,1.04-.34.27-.76.4-1.28.4h-6.34c-.51,0-.93-.13-1.26-.4-.33-.27-.49-.62-.49-1.04v-17.51c0-.43.16-.77.49-1.04.32-.27.74-.4,1.26-.4h6.34c.51,0,.94.13,1.28.4.34.27.5.62.5,1.04v4.74h-2.2v-4.59h-5.48v17.2h5.48v-5.02h2.2v5.18Z"/>
          <polygon class="cls-11" points="142.15 30.7 138.34 30.7 138.34 49.49 136.15 49.49 136.15 30.7 132.31 30.7 132.31 29.09 142.15 29.09 142.15 30.7"/>
          <polygon class="cls-4" points="142.15 30.7 138.34 30.7 138.34 49.49 136.15 49.49 136.15 30.7 132.31 30.7 132.31 29.09 142.15 29.09 142.15 30.7"/>
          <path class="cls-11" d="M155.12,48.05c0,.43-.17.77-.5,1.04-.33.27-.75.4-1.27.4h-6.89c-.51,0-.94-.13-1.26-.4-.32-.27-.49-.62-.49-1.04v-17.51c0-.43.16-.77.49-1.04.32-.27.75-.4,1.26-.4h6.89c.51,0,.94.13,1.27.4.33.27.5.62.5,1.04v17.51ZM152.93,30.7h-6.03v17.19h6.03v-17.19Z"/>
          <path class="cls-4" d="M155.12,48.05c0,.43-.17.77-.5,1.04-.33.27-.75.4-1.27.4h-6.89c-.51,0-.94-.13-1.26-.4-.32-.27-.49-.62-.49-1.04v-17.51c0-.43.16-.77.49-1.04.32-.27.75-.4,1.26-.4h6.89c.51,0,.94.13,1.27.4.33.27.5.62.5,1.04v17.51ZM152.93,30.7h-6.03v17.19h6.03v-17.19Z"/>
          <path class="cls-11" d="M169.54,49.49h-2.3l-4.58-10.92.3-.37h3.9v-7.51h-5.62v18.8h-2.19v-20.4h8.25c.51,0,.93.13,1.26.4.32.27.49.62.49,1.04v7.74c0,.98-.8,1.47-2.39,1.47-.16,0-.39,0-.69-.02-.31-.01-.53-.02-.66-.02,1.42,3.25,2.83,6.51,4.23,9.78"/>
          <path class="cls-4" d="M169.54,49.49h-2.3l-4.58-10.92.3-.37h3.9v-7.51h-5.62v18.8h-2.19v-20.4h8.25c.51,0,.93.13,1.26.4.32.27.49.62.49,1.04v7.74c0,.98-.8,1.47-2.39,1.47-.16,0-.39,0-.69-.02-.31-.01-.53-.02-.66-.02,1.42,3.25,2.83,6.51,4.23,9.78Z"/>
          <path class="cls-8" d="M174.17,47.98c0,.99-.78,1.77-1.8,1.77s-1.81-.78-1.81-1.77.8-1.75,1.81-1.75,1.8.78,1.8,1.75M171.02,47.98c0,.78.58,1.4,1.37,1.4s1.34-.62,1.34-1.39-.57-1.41-1.35-1.41-1.36.63-1.36,1.4M172.1,48.9h-.41v-1.75c.16-.03.39-.05.67-.05.33,0,.48.05.61.13.1.07.17.21.17.39,0,.19-.15.34-.36.41v.02c.17.06.27.19.32.43.05.27.08.37.13.44h-.44c-.05-.06-.09-.23-.14-.43-.03-.19-.14-.28-.36-.28h-.19v.71ZM172.11,47.9h.19c.22,0,.41-.07.41-.26,0-.16-.12-.27-.38-.27-.11,0-.18.01-.22.02v.5Z"/>
        </g>
        <g class="cls-14">
          <rect class="cls-9" y="52.92" width="55.31" height="5.27"/>
        </g>
        <g class="cls-15">
          <rect class="cls-10" x="4.25" y=".16" width="46.96" height="52.83"/>
        </g>
        <g class="cls-21">
          <path class="cls-5" d="M48.18,25.58V5.33c-8.34-3.31-18.74-3.49-20.28-3.5,0,0-11.44-.09-20.48,3.5v20.25s-1.15,9.02,20.38,22.64h0s0,0,0,0h0s0,0,0,0c21.53-13.62,20.38-22.64,20.38-22.64"/>
        </g>
        <g class="cls-18">
          <rect class="cls-7" x="9.12" y="4.67" width="37.11" height="36.75"/>
        </g>
        <g class="cls-17">
          <path class="cls-2" d="M45.64,23.48V7.44c-7.27-2.63-16.32-2.76-17.67-2.77,0,0-9.97-.07-17.84,2.77v16.04s-1,7.14,17.75,17.93h0s0,0,0,0c0,0,0,0,0,0h0c18.35-10.46,17.75-17.94,17.75-17.94Z"/>
        </g>
        <g class="cls-20">
          <rect class="cls-6" x="15.91" y="8.96" width="23.99" height="23.19"/>
        </g>
        <g class="cls-19">
          <path class="cls-5" d="M28.85,9.07l8.52.42s.02,0,.03,0c.64,0,1.26.21,1.7.61.47.4.7.97.69,1.55v9.14c.01.58-.22,1.15-.68,1.55-.45.41-1.07.62-1.71.62h-.02l-4.98.41v8.17l-3.54.42V9.07ZM32.38,20.42l3.85-.25.03-7.91-3.87-.23v8.39M24.67,9.08c.63,0,1.25.2,1.69.6.46.39.7.96.7,1.54v5.66h-3.5v-4.9s-4.03.24-4.03.24l-.04,16.09,4.06.41v-5.35l3.5.41v6.12c0,.58-.23,1.15-.7,1.54-.45.39-1.05.6-1.68.6l-6.28-.83h-.03c-.63,0-1.24-.2-1.67-.6-.45-.4-.68-.96-.68-1.54V11.63c0-.58.23-1.14.68-1.53.44-.4,1.05-.61,1.69-.61h.02l6.24-.42h.02M28.64,8.85v23.35l.24-.03,3.53-.41.19-.02v-8.17l4.78-.4h.01c.72,0,1.38-.24,1.86-.68.49-.43.76-1.05.75-1.71v-9.14c.01-.66-.27-1.29-.77-1.71-.46-.42-1.13-.66-1.84-.66h-.03l-8.5-.41h-.22ZM32.59,20.19v-7.94l3.45.21-.02,7.51-3.42.22ZM24.67,8.87h-.02l-6.25.42h-.01c-.72,0-1.37.24-1.83.66-.48.42-.75,1.04-.74,1.69v17.44c0,.65.27,1.27.75,1.69.46.42,1.1.66,1.81.66h.02l6.27.83h.01s.01,0,.01,0c.7,0,1.34-.23,1.82-.65.5-.42.78-1.05.77-1.7v-6.3l-.19-.02-3.5-.41-.24-.03v5.36l-3.64-.37.03-15.71,3.6-.21v4.67s0,.21,0,.21h3.92v-5.87c0-.66-.27-1.28-.77-1.7-.47-.42-1.12-.65-1.83-.65"/>
          <g class="cls-23">
            <g class="cls-12">
              <path class="cls-22" d="M27.84.58s-12.22-.1-21.87,3.91v22.67s-1.23,10.1,21.77,25.35l.1-51.93Z"/>
            </g>
          </g>
          <path class="cls-5" d="M27.73.12c.06,0,.09,0,.09,0,1.69,0,13.04.21,22.16,3.99v23.07s1.26,10.28-22.27,25.8h0s0,0,0,0h0s0,0,0,0C4.18,37.46,5.44,27.18,5.44,27.18V4.11C14.84.22,26.61.12,27.73.12M27.73,0C26.43,0,14.77.11,5.39,4l-.08.03v23.16c-.01.09-.29,2.65,2.33,7.14,2.4,4.12,7.82,10.73,20,18.76l.07.05.07-.05c12.18-8.03,17.59-14.63,20-18.76,2.62-4.49,2.34-7.05,2.33-7.16V4.03l-.08-.03C41,.26,29.95.01,27.82,0h-.09Z"/>
        </g>
      </g>
    </g>
  </g>
</svg>